<svg xmlns="http://www.w3.org/2000/svg" viewBox="0 0 24 24" fill="currentColor">
  <ns0:path xmlns:ns0="http://www.w3.org/2000/svg" fill="currentColor" d="M19.5 2H6.75A4.75 4.75 0 0 0 2 6.75v12.5A2.75 2.75 0 0 0 4.75 22h14.75a2.75 2.75 0 0 0 2.75-2.75V4.75A2.75 2.75 0 0 0 19.5 2zM4 6.75A2.75 2.75 0 0 1 6.75 4H11v14.05a4.7 4.7 0 0 0-4.25-.8H4zm16.25 12.5a.75.75 0 0 1-.75.75H6.75A2.75 2.75 0 0 1 4 18.25V18h2.75a2.75 2.75 0 0 1 2.75 2.75 1 1 0 0 0 2 0A2.75 2.75 0 0 1 14.25 18H20.25zM20.25 16H13V4h6.5A.75.75 0 0 1 20.25 4.75z" />
</svg>
